<svg xmlns="http://www.w3.org/2000/svg" width="58.715" height="98.297" viewBox="0 0 58.715 98.297">
  <g id="Group_51" data-name="Group 51" transform="translate(-1689.482 -968.038) rotate(13)">
    <g id="Group_48" data-name="Group 48" transform="translate(1916.03 598.754)">
      <path id="Path_76" data-name="Path 76" d="M1923.967,596.105c-7.541,11.81-10.5,24.944-11.318,38.709-.251,4.2-1.493,6.468-3.1,5.671-2.727-1.353-1.754-3.845-1.323-5.826.6-15.327,11.115-40.4,11.912-42.793C1921.033,589.175,1924.792,594.813,1923.967,596.105Z" transform="translate(-1907.699 -591.148)" fill="#3b3343"/>
    </g>
    <g id="Group_49" data-name="Group 49" transform="translate(1874.415 560.758)">
      <path id="Path_77" data-name="Path 77" d="M1874.814,608.542c-.141-1.6-.6-2.886-.3-3.955,2.466-8.568,4.945-17.138,7.693-25.619,1.47-4.532,3.428-8.913,5.275-13.316a11.953,11.953,0,0,1,2.428-4.022c.723-.7,2.2-.609,3.334-.873.255,1.117,1.118,2.679.674,3.282-7.942,10.793-11.251,23.377-14.28,36.087a75.356,75.356,0,0,1-1.964,7.348C1877.5,607.977,1876.159,608.071,1874.814,608.542Z" transform="translate(-1874.415 -560.758)" fill="#3b3343"/>
    </g>
    <g id="Group_50" data-name="Group 50" transform="translate(1894.048 566.372)">
      <path id="Path_78" data-name="Path 78" d="M1890.638,637.679c-.17-2.409-.839-4.347-.338-5.971,4.094-13.276,8.212-26.551,12.763-39.693A154.8,154.8,0,0,1,1912.44,570a14.323,14.323,0,0,1,2.657-3.693,5.26,5.26,0,0,1,2.846-1.032,1.989,1.989,0,0,1,2.313,2.3,4.2,4.2,0,0,1-.688,1.694c-12.465,16.548-16.295,36.241-21.295,55.551-.97,3.75-1.877,7.533-3.217,11.168C1894.774,636.748,1892.711,636.929,1890.638,637.679Z" transform="translate(-1890.118 -565.248)" fill="#3b3343"/>
    </g>
  </g>
</svg>
