<svg xmlns="http://www.w3.org/2000/svg" width="602" height="317" viewBox="0 0 602 317">
  <g id="Group_201" data-name="Group 201" transform="translate(-840 -4077)">
    <rect id="Rectangle_169" data-name="Rectangle 169" width="602" height="317" rx="10" transform="translate(840 4077)" fill="#fff"/>
    <rect id="Rectangle_172" data-name="Rectangle 172" width="522" height="2" rx="1" transform="translate(880 4119)" opacity="0.1"/>
    <circle id="Ellipse_6" data-name="Ellipse 6" cx="4" cy="4" r="4" transform="translate(880 4094)" opacity="0.1"/>
    <circle id="Ellipse_7" data-name="Ellipse 7" cx="4" cy="4" r="4" transform="translate(898 4094)" opacity="0.1"/>
    <circle id="Ellipse_8" data-name="Ellipse 8" cx="4" cy="4" r="4" transform="translate(916 4094)" opacity="0.1"/>
    <rect id="Rectangle_185" data-name="Rectangle 185" width="252" height="40" rx="5" transform="translate(880 4141)" fill="#3dcfcf"/>
    <rect id="Rectangle_211" data-name="Rectangle 211" width="252" height="178" rx="5" transform="translate(880 4191)" fill="#f2f2f2"/>
    <rect id="Rectangle_210" data-name="Rectangle 210" width="84" height="10" rx="3" transform="translate(964 4156)" fill="#31a6a6"/>
    <rect id="Rectangle_216" data-name="Rectangle 216" width="20" height="8" rx="3" transform="translate(904 4259)" fill="#e1e1e1"/>
    <rect id="Rectangle_225" data-name="Rectangle 225" width="20" height="8" rx="3" transform="translate(904 4295)" fill="#e1e1e1"/>
    <rect id="Rectangle_230" data-name="Rectangle 230" width="20" height="8" rx="3" transform="translate(904 4329)" fill="#e1e1e1"/>
    <rect id="Rectangle_235" data-name="Rectangle 235" width="20" height="8" rx="3" transform="translate(904 4223)" fill="#e1e1e1"/>
    <rect id="Rectangle_217" data-name="Rectangle 217" width="20" height="8" rx="3" transform="translate(950 4259)" fill="#e1e1e1"/>
    <rect id="Rectangle_223" data-name="Rectangle 223" width="20" height="8" rx="3" transform="translate(950 4295)" fill="#e1e1e1"/>
    <rect id="Rectangle_228" data-name="Rectangle 228" width="20" height="8" rx="3" transform="translate(950 4329)" fill="#e1e1e1"/>
    <rect id="Rectangle_233" data-name="Rectangle 233" width="20" height="8" rx="3" transform="translate(950 4223)" fill="#e1e1e1"/>
    <rect id="Rectangle_218" data-name="Rectangle 218" width="20" height="8" rx="3" transform="translate(996 4259)" fill="#e1e1e1"/>
    <rect id="Rectangle_224" data-name="Rectangle 224" width="20" height="8" rx="3" transform="translate(996 4295)" fill="#e1e1e1"/>
    <rect id="Rectangle_229" data-name="Rectangle 229" width="20" height="8" rx="3" transform="translate(996 4329)" fill="#e1e1e1"/>
    <rect id="Rectangle_234" data-name="Rectangle 234" width="20" height="8" rx="3" transform="translate(996 4223)" fill="#e1e1e1"/>
    <rect id="Rectangle_219" data-name="Rectangle 219" width="20" height="20" rx="3" transform="translate(1042 4253)" fill="#3dcfcf"/>
    <rect id="Rectangle_221" data-name="Rectangle 221" width="20" height="8" rx="3" transform="translate(1042 4295)" fill="#e1e1e1"/>
    <rect id="Rectangle_226" data-name="Rectangle 226" width="20" height="8" rx="3" transform="translate(1042 4329)" fill="#e1e1e1"/>
    <rect id="Rectangle_231" data-name="Rectangle 231" width="20" height="8" rx="3" transform="translate(1042 4223)" fill="#e1e1e1"/>
    <rect id="Rectangle_220" data-name="Rectangle 220" width="20" height="8" rx="3" transform="translate(1088 4259)" fill="#e1e1e1"/>
    <rect id="Rectangle_222" data-name="Rectangle 222" width="20" height="8" rx="3" transform="translate(1088 4295)" fill="#e1e1e1"/>
    <rect id="Rectangle_227" data-name="Rectangle 227" width="20" height="8" rx="3" transform="translate(1088 4329)" fill="#e1e1e1"/>
    <rect id="Rectangle_232" data-name="Rectangle 232" width="20" height="8" rx="3" transform="translate(1088 4223)" fill="#e1e1e1"/>
    <path id="Path_66" data-name="Path 66" d="M29.784,99.569a.824.824,0,0,1-.584-.242l-4.958-4.958a.826.826,0,0,1,0-1.169L29.2,88.241a.826.826,0,0,1,1.169,1.169l-4.374,4.374,4.374,4.374a.826.826,0,0,1-.584,1.411Z" transform="translate(865.973 4067.066)" fill="#31a6a6"/>
    <path id="Path_67" data-name="Path 67" d="M296.825,99.569a.826.826,0,0,1-.584-1.411l4.374-4.374L296.24,89.41a.826.826,0,0,1,1.169-1.169l4.958,4.958a.826.826,0,0,1,0,1.169l-4.958,4.958A.824.824,0,0,1,296.825,99.569Z" transform="translate(819.023 4067.066)" fill="#31a6a6"/>
    <rect id="Rectangle_237" data-name="Rectangle 237" width="244" height="40" rx="5" transform="translate(1158 4279)" fill="#f2f2f2"/>
    <rect id="Rectangle_257" data-name="Rectangle 257" width="244" height="40" rx="5" transform="translate(1158 4329)" fill="#3dcfcf"/>
    <rect id="Rectangle_251" data-name="Rectangle 251" width="244" height="40" rx="5" transform="translate(1158 4229)" fill="#f2f2f2"/>
    <rect id="Rectangle_261" data-name="Rectangle 261" width="244" height="78" rx="5" transform="translate(1158 4141)" fill="#f2f2f2"/>
    <rect id="Rectangle_238" data-name="Rectangle 238" width="69" height="10" rx="3" transform="translate(1183 4294)" fill="#e1e1e1"/>
    <rect id="Rectangle_246" data-name="Rectangle 246" width="69" height="10" rx="3" transform="translate(1183 4156)" fill="#e1e1e1"/>
    <rect id="Rectangle_262" data-name="Rectangle 262" width="167" height="10" rx="3" transform="translate(1183 4174)" fill="#e1e1e1"/>
    <rect id="Rectangle_263" data-name="Rectangle 263" width="130" height="10" rx="3" transform="translate(1183 4192)" fill="#e1e1e1"/>
    <rect id="Rectangle_258" data-name="Rectangle 258" width="69" height="10" rx="3" transform="translate(1183 4344)" fill="#31a6a6"/>
    <rect id="Rectangle_253" data-name="Rectangle 253" width="69" height="10" rx="3" transform="translate(1183 4244)" fill="#e1e1e1"/>
    <rect id="Rectangle_239" data-name="Rectangle 239" width="27" height="10" rx="3" transform="translate(1257 4294)" fill="#e1e1e1"/>
    <rect id="Rectangle_247" data-name="Rectangle 247" width="27" height="10" rx="3" transform="translate(1257 4156)" fill="#e1e1e1"/>
    <rect id="Rectangle_259" data-name="Rectangle 259" width="27" height="10" rx="3" transform="translate(1257 4344)" fill="#31a6a6"/>
    <rect id="Rectangle_254" data-name="Rectangle 254" width="27" height="10" rx="3" transform="translate(1257 4244)" fill="#e1e1e1"/>
    <rect id="Rectangle_240" data-name="Rectangle 240" width="27" height="10" rx="3" transform="translate(1350 4294)" fill="#e1e1e1"/>
    <rect id="Rectangle_260" data-name="Rectangle 260" width="27" height="10" rx="3" transform="translate(1350 4344)" fill="#31a6a6"/>
    <rect id="Rectangle_256" data-name="Rectangle 256" width="27" height="10" rx="3" transform="translate(1350 4244)" fill="#e1e1e1"/>
  </g>
</svg>
