<svg xmlns="http://www.w3.org/2000/svg" width="13.68" height="18.472" viewBox="0 0 13.68 18.472">
  <path id="Path_22" data-name="Path 22" d="M560.4-155.571a.889.889,0,0,1-.27.63l-5.97,5.95a.922.922,0,0,1-.63.26.9.9,0,0,1-.887-.913.9.9,0,0,1,.257-.617l4.44-4.42H542.819a.9.9,0,0,1-.63-.26.918.918,0,0,1-.26-.63.893.893,0,0,1,.9-.89h14.524l-4.44-4.42a.9.9,0,0,1,.012-1.273.9.9,0,0,1,.608-.257h.01a.934.934,0,0,1,.63.26l5.97,5.95A.875.875,0,0,1,560.4-155.571Z" transform="translate(-148.731 -541.929) rotate(90)" fill="#3dcfcf"/>
</svg>
