<svg xmlns="http://www.w3.org/2000/svg" width="644.237" height="590.362" viewBox="0 0 644.237 590.362">
  <g id="tooth6" transform="translate(-2653.831 -1286.559)">
    <g id="Group_23" data-name="Group 23" transform="translate(2735.378 1286.559)">
      <path id="Path_44" data-name="Path 44" d="M2755.5,1310.366c-3.082,6.366-8.352,9.948-15.119,11.5-7.668,1.477-16.765-4.914-20.234-12.874a8.332,8.332,0,0,1-.628-5.469c.327-1.37.529-2.77.879-4.133,2.911-11.328,15.018-16.305,24.941-10.2a25.424,25.424,0,0,1,10.352,12.976C2756.189,1303.458,2756.1,1309.13,2755.5,1310.366Zm-17.206,5.663c3.424.177,14.5-.921,13.28-10.63a20.921,20.921,0,0,0-2.632-7.918c-4.105-6.9-13.965-11.08-22.214-3.6-4.043,3.663-5.191,12.067-1.7,16.055C2728.348,1313.724,2732.474,1315.728,2738.294,1316.03Z" transform="translate(-2719.303 -1286.559)" fill="#deeaea"/>
    </g>
    <g id="Group_24" data-name="Group 24" transform="translate(2779.578 1301.713)">
      <path id="Path_45" data-name="Path 45" d="M2768.352,1299.474c3.456,1.157,4.71,3.758,3.6,7.116a9.961,9.961,0,0,1-11,6.593c-3.1-.463-6.807-5.393-6.063-8.847.772-3.587,3.219-5.3,6.616-5.571A27.223,27.223,0,0,1,2768.352,1299.474Zm-10.648,3.486c-.77,2.257-.863,6.715,5.323,7.674,3.988.619,6.834-4.817,5.708-6.858C2765.906,1298.643,2758.459,1300.741,2757.7,1302.96Z" transform="translate(-2754.79 -1298.726)" fill="#deeaea"/>
    </g>
    <g id="Group_25" data-name="Group 25" transform="translate(2653.831 1312.365)">
      <path id="Path_46" data-name="Path 46" d="M3267.881,1752.892c-16.264-20-33.6-38.861-49.946-59.3-4.945-6.182-2.65-4.354-7.349-10.742-7.774-10.591-54.148-59.616-69.437-107.749-10.137-31.909-35.234-64.917-54.479-92.212-21.964-31.167-43.421-62.706-65.22-93.983-17.417-24.973-34.024-60.468-62.541-74.974-13.929-18.928-45.838,8.228-60,11.222-13.64,2.885-29.134,1.333-42.391,6.429a31.352,31.352,0,0,0-4.724,2.293,5.373,5.373,0,0,0-.069-1.112c-1-6.5-20.206-10.055-24.561-7.294-6.827,4.313-3.463,17.075-8.544,19.932-13.146-4.684-16.718-13.819-32.4-10.069-10.536,2.514-16.663,14.738-25.069,16.9-4.491-8.531-18.887-16.882-23.943-3.545-5.439,14.41,10.866,11.621,15.605,17.308L2749.5,1385.4c-15.756,3.119-43.544,2.047-54.754,15.3-13.186,15.618,3.475,32.13,12.17,44.588-24.12,27.295-31.909,66.347-29.367,101.841a159.05,159.05,0,0,0,5.755,30.963c2.087,7.5,8.475,16.538,8.612,23.543.138,7.033-6.387,12.322-12.293,16.539-2.363,1.689-12.624,8.008-12.624,8.008-.756.358-10.618-5.467-12.9.453s10.591,15.549,14.273,14.685c6.606-1.567,5.384-9.6,3.282-11.278,5.358-6.167,18.242-13.022,23.626-18.008,9.039,6.621,12.912,24.08,16.909,34.382,6.471,16.608,10.042,33.078,12.817,50.646,4.644,29.423,2.72,60.715,10,89.575,7.239,28.695,36.964,36.168,47.939,5.756,9.766-27.088,10.7-69.122,33.461-89.245,25.18-22.267,49.342-1.512,58.051,24.889,8.64,26.224,1.222,66.924,28.392,84.2,33.559,21.319,41.745-26.21,42.954-48.187,1.567-28.188-2.431-61.813,16.209-85.563,8.819,3.791,16.745,13.214,26.828,12.87,9.422-.315,17.844-10.261,24.368-16.263,16.909-15.564,30.578-37.94,49.341-50.935,50.192,23.9,79.246,66.058,106.581,112.418,17.116,29.025,32.542,58.764,49.121,88.2,2.5,4.45,6.25,11.676,8.6,16.194,3.077,5.934,7.267,12.61,9.506,18.9,1.071,3.049,8.488,16.511,10.975,10.357,3.27-8.036-11.263-25.81-15.014-33.064-11.621-22.513-22.816-45.33-35.152-67.472-14.451-25.907-32.322-49.932-47.308-75.509-25.591-43.626-108.709-99.492-114.85-105.494-23.488-23.036-43.228-52.172-63.021-78.422-20-26.539-40.99-52.885-58.311-81.25-10.3-16.868-41.676-58.064-21.635-77.432,4.4,11.292,4.382,23.97,9.492,35.811,7.321,16.952,16.786,30.124,28.214,46.539,8.984,12.9,18.737,25.247,28.751,37.362,40.1,48.517,74.19,107.241,130.207,140.057,50.343,29.492,75.7,82.733,104.506,130.948,13.256,22.184,30.013,42.129,43.2,64.409,9.121,15.412,26.017,50.825,33.475,42.762,2.486-2.693-9.629-16.36-16.759-28.022-7.761-12.693-16.47-24.766-24.821-37.047-9.725-14.3-17.514-29.795-26.676-44.437-9.273-14.836-63.943-109.493-118.01-141.746-40.741-24.3-65.193-60.77-95.6-96.47-25.069-29.451-52.678-61.278-70.1-96.058-7.6-15.151-20.577-41.7-15.193-59.107,4.245-13.667,19.794-24.355,32.363-29.355,33.242-13.2,61,41.923,76.457,64,21.3,30.412,41.3,62.005,63.324,91.264,22.212,29.519,48.215,58.984,55.673,96.072,6.951,34.56,23.929,57.391,44.74,84.739,11.222,14.767,114.959,148.944,122.267,142.378C3302.057,1789.98,3275.875,1762.713,3267.881,1752.892Zm-526.569-402.076c3.42-8.7,14.313-3.764,14.382,4.189C2755.79,1365.253,2737.851,1359.634,2741.312,1350.816Zm199.438,367.31c-1.786,16.812-.907,33.833-2.734,50.591-1.374,12.624-3.434,33.75-17.871,38.365-15.385,4.9-26.3-13.681-30.522-25.659-8.351-23.709-3.626-54.107-18.021-75.523s-43.421-22.542-61.567-5.1c-21.621,20.8-19.437,58.929-30.77,85.288-10.562,24.6-32.953,19.094-39.862-5.4-8.531-30.247-5.687-63.613-11.044-94.573-5.027-29.149-15.207-56.127-27.5-82.885-22.583-49.176-20.659-109.809,11.813-153.3,3.641,1.071,1.483,8.406,3.1,11.346,2.871,5.193,6.319,7.02,10.6,10.935-1.649,8.709-6.086,9.684-5.015,19.341a28.1,28.1,0,0,0,4.878,13.448c9.147,12.555,25.6,12.995,39.258,13.654,0,29.231-10.976,65.482,23.476,81.292,6.373,2.939,16.566,4.341,23.406,3.75.686-.055,12.83-3.7,14.931-3.2,5.632,1.319,10.11,8.873,16.223,10.976,6.221,2.129,14.134-1.016,19.669,1.73,3.819,5.674,4.753,16.251,6.842,22.817-11.869,2.472-36.525,4.532-48.366-2.157a2.772,2.772,0,0,0-3.956,1.167c-2.472,5.536,2.83,18.339,5.1,22.624,3.819,7.281,9.381,10.536,17.513,12.226,11.359,2.363,20.564.123,27.1-9.479,3.489-5.138,5.357-14.6,10.1-17.926,14.451,4.574,22.968,3.063,37.02-.866,7.431,7.034,12.335,10.261,22.225,13.022,10.6,2.967,12.432,5.55,19.958,14.822C2952.111,1686.12,2942.6,1700.8,2940.75,1718.125Zm-75.934-60.481c-12.83,18.255-50.3,4.491-40.577-16.7a2.419,2.419,0,0,1,2.362-1.346c11.141.81,27.295-1.085,37.309,2.253C2870.681,1644.113,2871.326,1648.4,2864.816,1657.645Zm12.43-292.888c-2.391,14.726,6.443,27.433,12.885,40.221,14.423,28.667,33.682,52.239,51.731,78.489,34.987,50.88,72.953,96.073,117.816,138.229-10.027,3.2-18.557,18.626-25.8,25.989-8.406,8.558-17.226,16.868-26.058,24.973-20.248,18.585-31.333,9.657-46.841-8.943-15.976-19.176-34.067-37.968-45.041-60.8-5.042-10.467-8.022-20.3-3.242-31.346,2.844-6.58,18.86-17.185,14.615-23.736-18.352,7.376-30.659,28.626-47.638,8.406-10.714-12.76-27.856-33.214-19.711-50.521,3.131-6.649,30.741-29.74,18.915-33.023-5.11-1.415-18.518,9.6-23.407,11.978-6.428,3.118-13.626,4.726-19.876,8.173a.446.446,0,0,1-.1.343,1.079,1.079,0,0,1-.975.289c-.549.316-1.085.66-1.607,1.016,6.084,6.361,27.17-8.447,33.9-11.057-4.917,9.3-21.772,16.812-22.555,27.115-.673,9.079,10.783,25.261,15.33,32.238,5.756,8.833,16.4,28.819,26.758,32.46,11.017,3.874,18.463-8.229,27.308-12.912-2.706,9.368-11.388,14.986-10.219,26.291.837,8.214,7.581,16.4,11.73,23.312,2.666,4.437,28.118,37.212,24.465,39.588-8.366-1.059-17.335-4.039-19.313-11.978a5.325,5.325,0,0,0-6.14-4.2c-9.176,1.855-17.046,9.918-28.3,5.523-17.816-6.951-10.687-20.028-15.934-33.269-.741-1.868-2.458-5.193-5.027-5.412-5.961-.509-9.148,7.816-18.365,5.522-11.25-2.8-9.877-11.539-14.574-17.57a2.618,2.618,0,0,0-4.19.207c-12.061,18.571-38.05,6.552-49.19-8.338-6.043-8.077-9.094-18.338-10.741-28.16-2.144-12.8,2.664-20.906,4.808-32.678,1.978-10.935,3.131-7.364-11.085-7.459-8.517-.055-16.25-.741-23.407-5.934-6.731-4.876-13.255-13.407-12.211-22.212.645-5.357,9.492-12.35,8.31-16.579-7.226-1.443-12.487-2.487-14.752-10.44-2.239-7.857,6.456-14.177,2.4-20.865-13.792,2.129-37.129-19.369-24.162-32.281,13.282-13.229,53.269.123,61.195-14.122-8.2-16.525,11.319-39,25.235-45.494,10.438-4.89,17.568-3.118,27.459,1.759,6.373,3.145,10.274,10.618,15.027,1.827,3.64-6.744-4.409-13.612,5.371-18.338,2.623-1.278,11.648,4.313,16.538,4.945-6.414,4.671-11.7,11.126-17.472,16.579-22.266,21.058-33.668,36.416-28.751,68.118.893,5.894,24.629,71.636,32.157,72.8.358-.219.714-.425,1.072-.631-.042-4.135-19.519-40.481-20.852-44.767-3.6-11.484-12.954-40.618.8-49.052,7.169.577,56.881-15.879,56.772-22.747-5.041-3.517-13.146,3.227-18.365,3.763-14.258-11.4-30.811,16.333-41.869,9.383,8.765-15.646,22.968-37.309,37.968-47.816,5.426-3.819,46.964-18.834,49.849-12.171C2890.9,1339.991,2879.6,1350.279,2877.247,1364.757Z" transform="translate(-2653.831 -1307.278)" fill="#deeaea"/>
    </g>
    <g id="Group_26" data-name="Group 26" transform="translate(2834.527 1497.936)">
      <path id="Path_47" data-name="Path 47" d="M2798.906,1456.9c.358-.219.714-.425,1.072-.631a.446.446,0,0,1-.1.343A1.079,1.079,0,0,1,2798.906,1456.9Z" transform="translate(-2798.906 -1456.267)" fill="#deeaea"/>
    </g>
  </g>
</svg>
