<svg xmlns="http://www.w3.org/2000/svg" width="279" height="135" viewBox="0 0 279 135">
  <g id="Group_219" data-name="Group 219" transform="translate(-273 -9359)">
    <circle id="Ellipse_48" data-name="Ellipse 48" cx="4.5" cy="4.5" r="4.5" transform="translate(273 9359)" fill="#3b3343"/>
    <circle id="Ellipse_48-2" data-name="Ellipse 48" cx="4.5" cy="4.5" r="4.5" transform="translate(291 9359)" fill="#3b3343"/>
    <circle id="Ellipse_48-3" data-name="Ellipse 48" cx="4.5" cy="4.5" r="4.5" transform="translate(309 9359)" fill="#3b3343"/>
    <circle id="Ellipse_48-4" data-name="Ellipse 48" cx="4.5" cy="4.5" r="4.5" transform="translate(327 9359)" fill="#3b3343"/>
    <circle id="Ellipse_48-5" data-name="Ellipse 48" cx="4.5" cy="4.5" r="4.5" transform="translate(345 9359)" fill="#3b3343"/>
    <circle id="Ellipse_48-6" data-name="Ellipse 48" cx="4.5" cy="4.5" r="4.5" transform="translate(363 9359)" fill="#3b3343"/>
    <circle id="Ellipse_48-7" data-name="Ellipse 48" cx="4.5" cy="4.5" r="4.5" transform="translate(381 9359)" fill="#3b3343"/>
    <circle id="Ellipse_48-8" data-name="Ellipse 48" cx="4.5" cy="4.5" r="4.5" transform="translate(399 9359)" fill="#3b3343"/>
    <circle id="Ellipse_48-9" data-name="Ellipse 48" cx="4.5" cy="4.5" r="4.5" transform="translate(417 9359)" fill="#3b3343"/>
    <circle id="Ellipse_48-10" data-name="Ellipse 48" cx="4.5" cy="4.5" r="4.5" transform="translate(435 9359)" fill="#3b3343"/>
    <circle id="Ellipse_48-11" data-name="Ellipse 48" cx="4.5" cy="4.5" r="4.5" transform="translate(453 9359)" fill="#3b3343"/>
    <circle id="Ellipse_48-12" data-name="Ellipse 48" cx="4.5" cy="4.5" r="4.5" transform="translate(471 9359)" fill="#3b3343"/>
    <circle id="Ellipse_48-13" data-name="Ellipse 48" cx="4.5" cy="4.5" r="4.5" transform="translate(489 9359)" fill="#3b3343"/>
    <circle id="Ellipse_48-14" data-name="Ellipse 48" cx="4.5" cy="4.5" r="4.5" transform="translate(507 9359)" fill="#3b3343"/>
    <circle id="Ellipse_48-15" data-name="Ellipse 48" cx="4.5" cy="4.5" r="4.5" transform="translate(525 9359)" fill="#3b3343"/>
    <circle id="Ellipse_48-16" data-name="Ellipse 48" cx="4.5" cy="4.5" r="4.5" transform="translate(543 9359)" fill="#3b3343"/>
    <circle id="Ellipse_48-17" data-name="Ellipse 48" cx="4.5" cy="4.5" r="4.5" transform="translate(273 9377)" fill="#3b3343"/>
    <circle id="Ellipse_48-18" data-name="Ellipse 48" cx="4.5" cy="4.5" r="4.5" transform="translate(291 9377)" fill="#3b3343"/>
    <circle id="Ellipse_48-19" data-name="Ellipse 48" cx="4.5" cy="4.5" r="4.5" transform="translate(309 9377)" fill="#3b3343"/>
    <circle id="Ellipse_48-20" data-name="Ellipse 48" cx="4.5" cy="4.5" r="4.5" transform="translate(327 9377)" fill="#3b3343"/>
    <circle id="Ellipse_48-21" data-name="Ellipse 48" cx="4.5" cy="4.5" r="4.5" transform="translate(345 9377)" fill="#3b3343"/>
    <circle id="Ellipse_48-22" data-name="Ellipse 48" cx="4.5" cy="4.5" r="4.5" transform="translate(363 9377)" fill="#3b3343"/>
    <circle id="Ellipse_48-23" data-name="Ellipse 48" cx="4.5" cy="4.5" r="4.5" transform="translate(381 9377)" fill="#3b3343"/>
    <circle id="Ellipse_48-24" data-name="Ellipse 48" cx="4.5" cy="4.5" r="4.5" transform="translate(399 9377)" fill="#3b3343"/>
    <circle id="Ellipse_48-25" data-name="Ellipse 48" cx="4.5" cy="4.5" r="4.5" transform="translate(417 9377)" fill="#3b3343"/>
    <circle id="Ellipse_48-26" data-name="Ellipse 48" cx="4.5" cy="4.5" r="4.5" transform="translate(435 9377)" fill="#3b3343"/>
    <circle id="Ellipse_48-27" data-name="Ellipse 48" cx="4.5" cy="4.5" r="4.5" transform="translate(453 9377)" fill="#3b3343"/>
    <circle id="Ellipse_48-28" data-name="Ellipse 48" cx="4.5" cy="4.5" r="4.5" transform="translate(471 9377)" fill="#3b3343"/>
    <circle id="Ellipse_48-29" data-name="Ellipse 48" cx="4.5" cy="4.5" r="4.5" transform="translate(489 9377)" fill="#3b3343"/>
    <circle id="Ellipse_48-30" data-name="Ellipse 48" cx="8.5" cy="8.5" r="8.5" transform="translate(503 9373)" fill="#3b3343" opacity="0.5"/>
    <circle id="Ellipse_48-31" data-name="Ellipse 48" cx="4.5" cy="4.5" r="4.5" transform="translate(525 9377)" fill="#3b3343"/>
    <circle id="Ellipse_48-32" data-name="Ellipse 48" cx="4.5" cy="4.5" r="4.5" transform="translate(543 9377)" fill="#3b3343"/>
    <circle id="Ellipse_48-33" data-name="Ellipse 48" cx="4.5" cy="4.5" r="4.5" transform="translate(273 9395)" fill="#3b3343"/>
    <circle id="Ellipse_48-34" data-name="Ellipse 48" cx="4.5" cy="4.5" r="4.5" transform="translate(291 9395)" fill="#3b3343"/>
    <circle id="Ellipse_48-35" data-name="Ellipse 48" cx="4.5" cy="4.5" r="4.5" transform="translate(309 9395)" fill="#3b3343"/>
    <circle id="Ellipse_48-36" data-name="Ellipse 48" cx="4.5" cy="4.5" r="4.5" transform="translate(327 9395)" fill="#3b3343"/>
    <circle id="Ellipse_48-37" data-name="Ellipse 48" cx="4.5" cy="4.5" r="4.5" transform="translate(345 9395)" fill="#3b3343"/>
    <circle id="Ellipse_48-38" data-name="Ellipse 48" cx="4.5" cy="4.5" r="4.5" transform="translate(363 9395)" fill="#3b3343"/>
    <circle id="Ellipse_48-39" data-name="Ellipse 48" cx="4.5" cy="4.5" r="4.5" transform="translate(381 9395)" fill="#3b3343"/>
    <circle id="Ellipse_48-40" data-name="Ellipse 48" cx="4.5" cy="4.5" r="4.5" transform="translate(399 9395)" fill="#3b3343"/>
    <circle id="Ellipse_48-41" data-name="Ellipse 48" cx="4.5" cy="4.5" r="4.5" transform="translate(417 9395)" fill="#3b3343"/>
    <circle id="Ellipse_48-42" data-name="Ellipse 48" cx="4.5" cy="4.5" r="4.5" transform="translate(435 9395)" fill="#3b3343"/>
    <circle id="Ellipse_48-43" data-name="Ellipse 48" cx="4.5" cy="4.5" r="4.5" transform="translate(453 9395)" fill="#3b3343"/>
    <circle id="Ellipse_48-44" data-name="Ellipse 48" cx="4.5" cy="4.5" r="4.5" transform="translate(471 9395)" fill="#3b3343"/>
    <circle id="Ellipse_48-45" data-name="Ellipse 48" cx="4.5" cy="4.5" r="4.5" transform="translate(489 9395)" fill="#3b3343"/>
    <circle id="Ellipse_48-46" data-name="Ellipse 48" cx="4.5" cy="4.5" r="4.5" transform="translate(507 9395)" fill="#3b3343"/>
    <circle id="Ellipse_48-47" data-name="Ellipse 48" cx="4.5" cy="4.5" r="4.5" transform="translate(525 9395)" fill="#3b3343"/>
    <circle id="Ellipse_48-48" data-name="Ellipse 48" cx="4.5" cy="4.5" r="4.5" transform="translate(543 9395)" fill="#3b3343"/>
    <circle id="Ellipse_48-49" data-name="Ellipse 48" cx="4.5" cy="4.5" r="4.5" transform="translate(273 9413)" fill="#3b3343"/>
    <circle id="Ellipse_48-50" data-name="Ellipse 48" cx="4.5" cy="4.5" r="4.5" transform="translate(291 9413)" fill="#3b3343"/>
    <circle id="Ellipse_48-51" data-name="Ellipse 48" cx="4.5" cy="4.5" r="4.5" transform="translate(309 9413)" fill="#3b3343"/>
    <circle id="Ellipse_48-52" data-name="Ellipse 48" cx="4.5" cy="4.5" r="4.5" transform="translate(327 9413)" fill="#3b3343"/>
    <circle id="Ellipse_48-53" data-name="Ellipse 48" cx="4.5" cy="4.5" r="4.5" transform="translate(345 9413)" fill="#3b3343"/>
    <circle id="Ellipse_48-54" data-name="Ellipse 48" cx="4.5" cy="4.5" r="4.5" transform="translate(363 9413)" fill="#3b3343"/>
    <circle id="Ellipse_48-55" data-name="Ellipse 48" cx="4.5" cy="4.5" r="4.5" transform="translate(381 9413)" fill="#3b3343"/>
    <circle id="Ellipse_48-56" data-name="Ellipse 48" cx="4.5" cy="4.5" r="4.5" transform="translate(399 9413)" fill="#3b3343"/>
    <circle id="Ellipse_48-57" data-name="Ellipse 48" cx="4.5" cy="4.5" r="4.5" transform="translate(417 9413)" fill="#3b3343"/>
    <circle id="Ellipse_48-58" data-name="Ellipse 48" cx="4.5" cy="4.5" r="4.5" transform="translate(435 9413)" fill="#3b3343"/>
    <circle id="Ellipse_48-59" data-name="Ellipse 48" cx="4.5" cy="4.5" r="4.5" transform="translate(453 9413)" fill="#3b3343"/>
    <circle id="Ellipse_48-60" data-name="Ellipse 48" cx="4.5" cy="4.5" r="4.5" transform="translate(471 9413)" fill="#3b3343"/>
    <circle id="Ellipse_48-61" data-name="Ellipse 48" cx="4.5" cy="4.5" r="4.5" transform="translate(489 9413)" fill="#3b3343"/>
    <circle id="Ellipse_48-62" data-name="Ellipse 48" cx="4.5" cy="4.5" r="4.5" transform="translate(507 9413)" fill="#3b3343"/>
    <circle id="Ellipse_48-63" data-name="Ellipse 48" cx="4.5" cy="4.5" r="4.5" transform="translate(525 9413)" fill="#3b3343"/>
    <circle id="Ellipse_48-64" data-name="Ellipse 48" cx="4.5" cy="4.5" r="4.5" transform="translate(543 9413)" fill="#3b3343"/>
    <circle id="Ellipse_48-65" data-name="Ellipse 48" cx="4.5" cy="4.5" r="4.5" transform="translate(273 9431)" fill="#3b3343"/>
    <circle id="Ellipse_48-66" data-name="Ellipse 48" cx="4.5" cy="4.5" r="4.5" transform="translate(291 9431)" fill="#3b3343"/>
    <circle id="Ellipse_48-67" data-name="Ellipse 48" cx="4.5" cy="4.5" r="4.5" transform="translate(309 9431)" fill="#3b3343"/>
    <circle id="Ellipse_48-68" data-name="Ellipse 48" cx="4.5" cy="4.5" r="4.5" transform="translate(327 9431)" fill="#3b3343"/>
    <circle id="Ellipse_48-69" data-name="Ellipse 48" cx="4.5" cy="4.5" r="4.5" transform="translate(345 9431)" fill="#3b3343"/>
    <circle id="Ellipse_48-70" data-name="Ellipse 48" cx="4.5" cy="4.5" r="4.5" transform="translate(363 9431)" fill="#3b3343"/>
    <circle id="Ellipse_48-71" data-name="Ellipse 48" cx="8.5" cy="8.5" r="8.5" transform="translate(377 9427)" fill="#3b3343" opacity="0.5"/>
    <circle id="Ellipse_48-72" data-name="Ellipse 48" cx="4.5" cy="4.5" r="4.5" transform="translate(399 9431)" fill="#3b3343"/>
    <circle id="Ellipse_48-73" data-name="Ellipse 48" cx="4.5" cy="4.5" r="4.5" transform="translate(417 9431)" fill="#3b3343"/>
    <circle id="Ellipse_48-74" data-name="Ellipse 48" cx="4.5" cy="4.5" r="4.5" transform="translate(435 9431)" fill="#3b3343"/>
    <circle id="Ellipse_48-75" data-name="Ellipse 48" cx="4.5" cy="4.5" r="4.5" transform="translate(453 9431)" fill="#3b3343"/>
    <circle id="Ellipse_48-76" data-name="Ellipse 48" cx="4.5" cy="4.5" r="4.5" transform="translate(471 9431)" fill="#3b3343"/>
    <circle id="Ellipse_48-77" data-name="Ellipse 48" cx="4.5" cy="4.5" r="4.5" transform="translate(489 9431)" fill="#3b3343"/>
    <circle id="Ellipse_48-78" data-name="Ellipse 48" cx="4.5" cy="4.5" r="4.5" transform="translate(507 9431)" fill="#3b3343"/>
    <circle id="Ellipse_48-79" data-name="Ellipse 48" cx="4.5" cy="4.5" r="4.5" transform="translate(525 9431)" fill="#3b3343"/>
    <circle id="Ellipse_48-80" data-name="Ellipse 48" cx="4.5" cy="4.5" r="4.5" transform="translate(543 9431)" fill="#3b3343"/>
    <circle id="Ellipse_48-81" data-name="Ellipse 48" cx="4.5" cy="4.5" r="4.5" transform="translate(273 9449)" fill="#3b3343"/>
    <circle id="Ellipse_48-82" data-name="Ellipse 48" cx="4.5" cy="4.5" r="4.5" transform="translate(291 9449)" fill="#3b3343"/>
    <circle id="Ellipse_48-83" data-name="Ellipse 48" cx="8.5" cy="8.5" r="8.5" transform="translate(305 9445)" fill="#3b3343" opacity="0.5"/>
    <circle id="Ellipse_48-84" data-name="Ellipse 48" cx="4.5" cy="4.5" r="4.5" transform="translate(327 9449)" fill="#3b3343"/>
    <circle id="Ellipse_48-85" data-name="Ellipse 48" cx="4.5" cy="4.5" r="4.5" transform="translate(345 9449)" fill="#3b3343"/>
    <circle id="Ellipse_48-86" data-name="Ellipse 48" cx="4.5" cy="4.5" r="4.5" transform="translate(363 9449)" fill="#3b3343"/>
    <circle id="Ellipse_48-87" data-name="Ellipse 48" cx="4.5" cy="4.5" r="4.5" transform="translate(381 9449)" fill="#3b3343"/>
    <circle id="Ellipse_48-88" data-name="Ellipse 48" cx="4.5" cy="4.5" r="4.5" transform="translate(399 9449)" fill="#3b3343"/>
    <circle id="Ellipse_48-89" data-name="Ellipse 48" cx="4.5" cy="4.5" r="4.5" transform="translate(417 9449)" fill="#3b3343"/>
    <circle id="Ellipse_48-90" data-name="Ellipse 48" cx="4.5" cy="4.5" r="4.5" transform="translate(435 9449)" fill="#3b3343"/>
    <circle id="Ellipse_48-91" data-name="Ellipse 48" cx="4.5" cy="4.5" r="4.5" transform="translate(453 9449)" fill="#3b3343"/>
    <circle id="Ellipse_48-92" data-name="Ellipse 48" cx="4.5" cy="4.5" r="4.5" transform="translate(471 9449)" fill="#3b3343"/>
    <circle id="Ellipse_48-93" data-name="Ellipse 48" cx="4.5" cy="4.5" r="4.5" transform="translate(489 9449)" fill="#3b3343"/>
    <circle id="Ellipse_48-94" data-name="Ellipse 48" cx="4.5" cy="4.5" r="4.5" transform="translate(507 9449)" fill="#3b3343"/>
    <circle id="Ellipse_48-95" data-name="Ellipse 48" cx="4.5" cy="4.5" r="4.5" transform="translate(525 9449)" fill="#3b3343"/>
    <circle id="Ellipse_48-96" data-name="Ellipse 48" cx="4.5" cy="4.5" r="4.5" transform="translate(543 9449)" fill="#3b3343"/>
    <circle id="Ellipse_48-97" data-name="Ellipse 48" cx="4.5" cy="4.5" r="4.5" transform="translate(273 9467)" fill="#3b3343"/>
    <circle id="Ellipse_48-98" data-name="Ellipse 48" cx="4.5" cy="4.5" r="4.5" transform="translate(291 9467)" fill="#3b3343"/>
    <circle id="Ellipse_48-99" data-name="Ellipse 48" cx="4.5" cy="4.5" r="4.5" transform="translate(309 9467)" fill="#3b3343"/>
    <circle id="Ellipse_48-100" data-name="Ellipse 48" cx="4.5" cy="4.5" r="4.5" transform="translate(327 9467)" fill="#3b3343"/>
    <circle id="Ellipse_48-101" data-name="Ellipse 48" cx="4.5" cy="4.5" r="4.5" transform="translate(345 9467)" fill="#3b3343"/>
    <circle id="Ellipse_48-102" data-name="Ellipse 48" cx="4.5" cy="4.5" r="4.5" transform="translate(363 9467)" fill="#3b3343"/>
    <circle id="Ellipse_48-103" data-name="Ellipse 48" cx="4.5" cy="4.5" r="4.5" transform="translate(381 9467)" fill="#3b3343"/>
    <circle id="Ellipse_48-104" data-name="Ellipse 48" cx="4.5" cy="4.5" r="4.5" transform="translate(399 9467)" fill="#3b3343"/>
    <circle id="Ellipse_48-105" data-name="Ellipse 48" cx="4.5" cy="4.5" r="4.5" transform="translate(417 9467)" fill="#3b3343"/>
    <circle id="Ellipse_48-106" data-name="Ellipse 48" cx="4.5" cy="4.5" r="4.5" transform="translate(435 9467)" fill="#3b3343"/>
    <circle id="Ellipse_48-107" data-name="Ellipse 48" cx="4.5" cy="4.5" r="4.5" transform="translate(453 9467)" fill="#3b3343"/>
    <circle id="Ellipse_48-108" data-name="Ellipse 48" cx="8.5" cy="8.5" r="8.5" transform="translate(467 9463)" fill="#3b3343" opacity="0.5"/>
    <circle id="Ellipse_48-109" data-name="Ellipse 48" cx="4.5" cy="4.5" r="4.5" transform="translate(489 9467)" fill="#3b3343"/>
    <circle id="Ellipse_48-110" data-name="Ellipse 48" cx="4.5" cy="4.5" r="4.5" transform="translate(507 9467)" fill="#3b3343"/>
    <circle id="Ellipse_48-111" data-name="Ellipse 48" cx="4.5" cy="4.5" r="4.5" transform="translate(525 9467)" fill="#3b3343"/>
    <circle id="Ellipse_48-112" data-name="Ellipse 48" cx="4.5" cy="4.5" r="4.5" transform="translate(543 9467)" fill="#3b3343"/>
    <circle id="Ellipse_48-113" data-name="Ellipse 48" cx="4.5" cy="4.5" r="4.5" transform="translate(273 9485)" fill="#3b3343"/>
    <circle id="Ellipse_48-114" data-name="Ellipse 48" cx="4.5" cy="4.5" r="4.5" transform="translate(291 9485)" fill="#3b3343"/>
    <circle id="Ellipse_48-115" data-name="Ellipse 48" cx="4.5" cy="4.5" r="4.5" transform="translate(309 9485)" fill="#3b3343"/>
    <circle id="Ellipse_48-116" data-name="Ellipse 48" cx="4.5" cy="4.5" r="4.5" transform="translate(327 9485)" fill="#3b3343"/>
    <circle id="Ellipse_48-117" data-name="Ellipse 48" cx="4.5" cy="4.5" r="4.5" transform="translate(345 9485)" fill="#3b3343"/>
    <circle id="Ellipse_48-118" data-name="Ellipse 48" cx="4.5" cy="4.5" r="4.5" transform="translate(363 9485)" fill="#3b3343"/>
    <circle id="Ellipse_48-119" data-name="Ellipse 48" cx="4.5" cy="4.5" r="4.5" transform="translate(381 9485)" fill="#3b3343"/>
    <circle id="Ellipse_48-120" data-name="Ellipse 48" cx="4.5" cy="4.5" r="4.5" transform="translate(399 9485)" fill="#3b3343"/>
    <circle id="Ellipse_48-121" data-name="Ellipse 48" cx="4.5" cy="4.5" r="4.5" transform="translate(417 9485)" fill="#3b3343"/>
    <circle id="Ellipse_48-122" data-name="Ellipse 48" cx="4.5" cy="4.5" r="4.5" transform="translate(435 9485)" fill="#3b3343"/>
    <circle id="Ellipse_48-123" data-name="Ellipse 48" cx="4.5" cy="4.5" r="4.5" transform="translate(453 9485)" fill="#3b3343"/>
    <circle id="Ellipse_48-124" data-name="Ellipse 48" cx="4.5" cy="4.5" r="4.5" transform="translate(471 9485)" fill="#3b3343"/>
    <circle id="Ellipse_48-125" data-name="Ellipse 48" cx="4.5" cy="4.5" r="4.5" transform="translate(489 9485)" fill="#3b3343"/>
    <circle id="Ellipse_48-126" data-name="Ellipse 48" cx="4.5" cy="4.5" r="4.5" transform="translate(507 9485)" fill="#3b3343"/>
    <circle id="Ellipse_48-127" data-name="Ellipse 48" cx="4.5" cy="4.5" r="4.5" transform="translate(525 9485)" fill="#3b3343"/>
    <circle id="Ellipse_48-128" data-name="Ellipse 48" cx="4.5" cy="4.5" r="4.5" transform="translate(543 9485)" fill="#3b3343"/>
  </g>
</svg>
