<svg xmlns="http://www.w3.org/2000/svg" width="31" height="31" viewBox="0 0 31 31">
  <g id="Group_42" data-name="Group 42" transform="translate(-0.004 -0.004)">
    <g id="Group_41" data-name="Group 41" transform="translate(0.004 0.004)">
      <g id="Group_40" data-name="Group 40" transform="translate(0 0)">
        <path id="Path_73" data-name="Path 73" d="M26.464,4.543a15.5,15.5,0,1,0,0,21.92A15.5,15.5,0,0,0,26.464,4.543ZM21.9,20.07A1.292,1.292,0,0,1,20.07,21.9L15.5,17.33,10.938,21.9a1.292,1.292,0,1,1-1.827-1.827L13.677,15.5,9.11,10.937a1.292,1.292,0,1,1,1.827-1.827L15.5,13.677,20.07,9.111A1.292,1.292,0,1,1,21.9,10.937L17.33,15.5Z" transform="translate(-0.004 -0.004)" fill="#ff7162"/>
        <path id="Path_74" data-name="Path 74" d="M157.318,155.5a1.292,1.292,0,0,1-1.827,1.827l-4.567-4.566-4.565,4.565a1.292,1.292,0,1,1-1.827-1.827l4.565-4.565-4.567-4.567a1.292,1.292,0,0,1,1.827-1.827l4.567,4.567,4.567-4.567a1.292,1.292,0,0,1,1.827,1.827l-4.567,4.567Z" transform="translate(-135.425 -135.434)" fill="#fff"/>
      </g>
    </g>
  </g>
</svg>
