<svg xmlns="http://www.w3.org/2000/svg" width="602" height="384" viewBox="0 0 602 384">
  <g id="Group_200" data-name="Group 200" transform="translate(-210 -4964)">
    <rect id="Rectangle_169" data-name="Rectangle 169" width="602" height="384" rx="10" transform="translate(210 4964)" fill="#fff"/>
    <rect id="Rectangle_172" data-name="Rectangle 172" width="522" height="2" rx="1" transform="translate(250 5006)" opacity="0.1"/>
    <circle id="Ellipse_6" data-name="Ellipse 6" cx="4" cy="4" r="4" transform="translate(250 4981)" opacity="0.1"/>
    <circle id="Ellipse_7" data-name="Ellipse 7" cx="4" cy="4" r="4" transform="translate(268 4981)" opacity="0.1"/>
    <circle id="Ellipse_8" data-name="Ellipse 8" cx="4" cy="4" r="4" transform="translate(286 4981)" opacity="0.1"/>
    <rect id="Rectangle_173" data-name="Rectangle 173" width="264" height="38" rx="5" transform="translate(250 5096)" opacity="0.05"/>
    <rect id="Rectangle_266" data-name="Rectangle 266" width="264" height="38" rx="5" transform="translate(250 5144)" opacity="0.05"/>
    <rect id="Rectangle_269" data-name="Rectangle 269" width="264" height="38" rx="5" transform="translate(250 5285)" fill="#3dcfcf"/>
    <rect id="Rectangle_273" data-name="Rectangle 273" width="264" height="38" rx="5" transform="translate(250 5048)" opacity="0.05"/>
    <rect id="Rectangle_267" data-name="Rectangle 267" width="160" height="38" rx="5" transform="translate(250 5192)" opacity="0.05"/>
    <rect id="Rectangle_268" data-name="Rectangle 268" width="94" height="38" rx="5" transform="translate(420 5192)" opacity="0.05"/>
    <rect id="Rectangle_177" data-name="Rectangle 177" width="204" height="5" rx="1" transform="translate(534 5048)" fill="#3dcfcf"/>
    <rect id="Rectangle_277" data-name="Rectangle 277" width="164" height="5" rx="1" transform="translate(534 5164)" fill="#e1e1e1"/>
    <rect id="Rectangle_287" data-name="Rectangle 287" width="144" height="5" rx="1" transform="translate(534 5305)" fill="#e1e1e1"/>
    <rect id="Rectangle_178" data-name="Rectangle 178" width="196" height="5" rx="1" transform="translate(534 5058)" fill="#3dcfcf"/>
    <rect id="Rectangle_279" data-name="Rectangle 279" width="156" height="5" rx="1" transform="translate(534 5174)" fill="#e1e1e1"/>
    <rect id="Rectangle_289" data-name="Rectangle 289" width="187" height="5" rx="1" transform="translate(534 5315)" fill="#e1e1e1"/>
    <rect id="Rectangle_179" data-name="Rectangle 179" width="186" height="5" rx="1" transform="translate(534 5068)" fill="#3dcfcf"/>
    <rect id="Rectangle_275" data-name="Rectangle 275" width="199" height="5" rx="1" transform="translate(534 5078)" fill="#3dcfcf"/>
    <rect id="Rectangle_184" data-name="Rectangle 184" width="27" height="10" rx="3" transform="translate(534 5028)" fill="#3dcfcf"/>
    <rect id="Rectangle_276" data-name="Rectangle 276" width="27" height="10" rx="3" transform="translate(534 5144)" fill="#e1e1e1"/>
    <rect id="Rectangle_286" data-name="Rectangle 286" width="27" height="10" rx="3" transform="translate(534 5285)" fill="#e1e1e1"/>
    <rect id="Rectangle_280" data-name="Rectangle 280" width="109" height="10" rx="3" transform="translate(263 5062)" fill="#e1e1e1"/>
    <rect id="Rectangle_281" data-name="Rectangle 281" width="72" height="10" rx="3" transform="translate(263 5110)" fill="#e1e1e1"/>
    <rect id="Rectangle_283" data-name="Rectangle 283" width="100" height="10" rx="3" transform="translate(263 5206)" fill="#e1e1e1"/>
    <rect id="Rectangle_285" data-name="Rectangle 285" width="138" height="10" rx="3" transform="translate(313 5299)" fill="#31a6a6"/>
    <rect id="Rectangle_284" data-name="Rectangle 284" width="43" height="10" rx="3" transform="translate(433 5206)" fill="#e1e1e1"/>
    <rect id="Rectangle_282" data-name="Rectangle 282" width="193" height="10" rx="3" transform="translate(263 5158)" fill="#e1e1e1"/>
    <rect id="Rectangle_270" data-name="Rectangle 270" width="69" height="10" rx="3" transform="translate(250 5265)" fill="#e1e1e1"/>
    <rect id="Rectangle_272" data-name="Rectangle 272" width="69" height="10" rx="3" transform="translate(250 5028)" fill="#e1e1e1"/>
    <rect id="Rectangle_271" data-name="Rectangle 271" width="48" height="10" rx="3" transform="translate(324 5265)" fill="#e1e1e1"/>
    <rect id="Rectangle_274" data-name="Rectangle 274" width="48" height="10" rx="3" transform="translate(324 5028)" fill="#e1e1e1"/>
    <rect id="Rectangle_195" data-name="Rectangle 195" width="27" height="10" rx="3" transform="translate(566 5028)" fill="#3dcfcf"/>
    <rect id="Rectangle_278" data-name="Rectangle 278" width="27" height="10" rx="3" transform="translate(566 5144)" fill="#e1e1e1"/>
    <rect id="Rectangle_288" data-name="Rectangle 288" width="27" height="10" rx="3" transform="translate(566 5285)" fill="#e1e1e1"/>
  </g>
</svg>
