<svg xmlns="http://www.w3.org/2000/svg" width="235.646" height="76.492" viewBox="0 0 235.646 76.492">
  <g id="Group_58" data-name="Group 58" transform="translate(-177.388 -196.189)">
    <g id="Group_57" data-name="Group 57" transform="translate(306.286 204.642)">
      <g id="Group_56" data-name="Group 56">
        <path id="Path_99" data-name="Path 99" d="M358.809,208.082h3.979a7.315,7.315,0,0,1,1.837.221,4.173,4.173,0,0,1,1.5.705,3.37,3.37,0,0,1,1.006,1.263,4.4,4.4,0,0,1,.369,1.893,4.6,4.6,0,0,1-.34,1.842,3.556,3.556,0,0,1-.955,1.307,3.986,3.986,0,0,1-1.467.779,6.509,6.509,0,0,1-1.876.256h-4.048Zm3.252,6.879a8.318,8.318,0,0,0,1.757-.158,3.089,3.089,0,0,0,1.183-.5,1.985,1.985,0,0,0,.671-.864,3.862,3.862,0,0,0-.006-2.531,1.878,1.878,0,0,0-.677-.836,3.152,3.152,0,0,0-1.188-.461,9.243,9.243,0,0,0-1.74-.141h-1.638v5.492Z" transform="translate(-358.763 -208.082)" fill="#3b3343"/>
        <path id="Path_100" data-name="Path 100" d="M377.192,208.082h7.414v1.387h-5.8v1.922H383.8v1.387h-4.992v2.183h5.935v1.387h-7.551Z" transform="translate(-364.08 -208.082)" fill="#3b3343"/>
        <path id="Path_101" data-name="Path 101" d="M393.8,208.082h1.706l5.527,5.97v-5.97h1.546v8.267H401.1l-5.754-6.186v6.186H393.8Z" transform="translate(-368.884 -208.082)" fill="#3b3343"/>
        <path id="Path_102" data-name="Path 102" d="M415.7,209.469h-3.7v-1.387h9.007v1.387h-3.7v6.879H415.7Z" transform="translate(-374.151 -208.082)" fill="#3b3343"/>
        <path id="Path_103" data-name="Path 103" d="M431.3,208.082h1.842l4.014,8.267h-1.705l-.864-1.9h-4.765l-.876,1.9h-1.717Zm2.65,4.98-1.729-3.684-1.729,3.684Z" transform="translate(-378.552 -208.082)" fill="#3b3343"/>
        <path id="Path_104" data-name="Path 104" d="M446.856,208.082h1.615v6.835h5.993v1.432h-7.608Z" transform="translate(-384.231 -208.082)" fill="#3b3343"/>
        <path id="Path_105" data-name="Path 105" d="M360.2,229.283h-.023v6.267h-1.434v-8.267h2.173l2.581,6.129,2.627-6.129h2.127v8.267h-1.433v-6.267H366.8l-2.649,6.267h-1.286Z" transform="translate(-358.744 -213.636)" fill="#3b3343"/>
        <path id="Path_106" data-name="Path 106" d="M381.792,227.282h1.842l4.014,8.267h-1.706l-.864-1.9h-4.765l-.876,1.9h-1.717Zm2.65,4.981-1.729-3.685-1.729,3.685Z" transform="translate(-364.233 -213.636)" fill="#3b3343"/>
        <path id="Path_107" data-name="Path 107" d="M397.353,227.282h4.97a8.365,8.365,0,0,1,1.347.1,2.981,2.981,0,0,1,1.069.376,1.884,1.884,0,0,1,.7.75,2.68,2.68,0,0,1,.249,1.24,2.575,2.575,0,0,1-.188,1.012,2.239,2.239,0,0,1-.505.751,2.305,2.305,0,0,1-.739.478,2.648,2.648,0,0,1-.876.193l2.535,3.367h-1.989l-2.4-3.253h-2.559v3.253h-1.615Zm4.731,3.673a7.209,7.209,0,0,0,.864-.046,1.919,1.919,0,0,0,.625-.17.842.842,0,0,0,.375-.359,1.257,1.257,0,0,0,.125-.6,1.229,1.229,0,0,0-.125-.591.856.856,0,0,0-.375-.353,1.919,1.919,0,0,0-.625-.17,7.209,7.209,0,0,0-.864-.046h-3.116v2.332Z" transform="translate(-369.912 -213.636)" fill="#3b3343"/>
        <path id="Path_108" data-name="Path 108" d="M415.736,227.282h1.616v3.855l4.582-3.855h2.3l-3.946,3.274,4.343,4.993h-2.114l-3.4-4.037-1.762,1.466v2.571h-1.616Z" transform="translate(-375.229 -213.636)" fill="#3b3343"/>
        <path id="Path_109" data-name="Path 109" d="M434.12,227.282h7.414v1.387h-5.8v1.922h4.992v1.387h-4.992v2.183h5.935v1.388H434.12Z" transform="translate(-380.547 -213.636)" fill="#3b3343"/>
        <path id="Path_110" data-name="Path 110" d="M453.368,228.669h-3.7v-1.387h9.007v1.387h-3.7v6.88h-1.616Z" transform="translate(-385.046 -213.636)" fill="#3b3343"/>
        <path id="Path_111" data-name="Path 111" d="M468.344,227.282h1.615v8.267h-1.615Z" transform="translate(-390.446 -213.636)" fill="#3b3343"/>
        <path id="Path_112" data-name="Path 112" d="M477.672,227.282h1.706l5.527,5.97v-5.97h1.546v8.267h-1.478l-5.754-6.186v6.186h-1.547Z" transform="translate(-393.144 -213.636)" fill="#3b3343"/>
        <path id="Path_113" data-name="Path 113" d="M505.247,231.224v4.333h-.978l-.319-.854c-.158.107-.333.215-.522.324a5.027,5.027,0,0,1-.654.313,4.682,4.682,0,0,1-.842.239,5.737,5.737,0,0,1-1.075.091,6.739,6.739,0,0,1-1.081-.091,5.254,5.254,0,0,1-1.074-.3,4.435,4.435,0,0,1-.978-.54,3.53,3.53,0,0,1-.8-.814,3.852,3.852,0,0,1-.54-1.12,4.9,4.9,0,0,1-.2-1.461,5.066,5.066,0,0,1,.262-1.616,3.851,3.851,0,0,1,.818-1.393,4.046,4.046,0,0,1,1.434-.978,5.45,5.45,0,0,1,2.115-.369,7.316,7.316,0,0,1,1.434.142,4.563,4.563,0,0,1,1.318.472,3.548,3.548,0,0,1,1.041.859,2.841,2.841,0,0,1,.586,1.313h-1.65a3.334,3.334,0,0,0-.21-.4,1.714,1.714,0,0,0-.42-.461,2.52,2.52,0,0,0-.734-.382,3.61,3.61,0,0,0-1.171-.158,3.785,3.785,0,0,0-1.6.29,2.733,2.733,0,0,0-.978.727,2.515,2.515,0,0,0-.495.945,3.618,3.618,0,0,0-.136.938,3.3,3.3,0,0,0,.232,1.29,2.556,2.556,0,0,0,.643.921,2.684,2.684,0,0,0,.972.557,3.842,3.842,0,0,0,1.222.188,3.584,3.584,0,0,0,1.888-.421,2.335,2.335,0,0,0,.978-1.3h-2.9v-1.3Z" transform="translate(-398.499 -213.552)" fill="#3b3343"/>
      </g>
    </g>
    <path id="Path_114" data-name="Path 114" d="M179.712,238.142a3.557,3.557,0,0,1-2.324-3.686c0-2.4,1.38-3.113,3.633-2.247a17.728,17.728,0,0,0,6.2,1.24c3.039,0,4.8-1.01,4.8-2.627,0-4.549-14.481-1.984-14.481-12.1,0-5.754,4.554-9.395,11.336-9.395a18.187,18.187,0,0,1,6.655,1.272,3.536,3.536,0,0,1,2.315,3.682v.066c0,2.355-1.321,3.076-3.573,2.414a16.488,16.488,0,0,0-4.625-.683c-2.987,0-4.557.93-4.557,2.4,0,4.154,14.5,1.657,14.5,12.026,0,6.308-5.28,9.383-11.3,9.383A23.524,23.524,0,0,1,179.712,238.142Z" transform="translate(0 -3.801)" fill="#3b3343"/>
    <path id="Path_115" data-name="Path 115" d="M249.022,209.34c6.8,0,10.535,5.312,10.535,12.738v13.841a2.851,2.851,0,0,1-3.177,3.176h-1.711a2.851,2.851,0,0,1-3.176-3.176V223.724c0-5.621-1.839-7.551-4.729-7.551-2.685,0-4.938,2.21-4.938,7.766v11.98a2.85,2.85,0,0,1-3.176,3.176h-1.711a2.851,2.851,0,0,1-3.176-3.176V223.724c0-5.621-1.841-7.551-4.731-7.551-2.684,0-4.938,2.21-4.938,7.766v11.98a2.851,2.851,0,0,1-3.177,3.176h-1.711a2.852,2.852,0,0,1-3.177-3.176V213.25c0-2.065,1.085-3.176,3.1-3.176h.13c1.969,0,3.067.71,3.264,2.112.159,1.134.828,1.114,1.711.14a9.205,9.205,0,0,1,7.068-2.984,9.517,9.517,0,0,1,8.036,3.938c.618.876,1.036,1.067,1.413.458a9.26,9.26,0,0,1,8.27-4.4Z" transform="translate(-11.177 -3.804)" fill="#3b3343"/>
    <path id="Path_116" data-name="Path 116" d="M301.83,212.959a3.439,3.439,0,0,1,3.606-2.589H307.6c2.406,0,3.392,1.488,2.451,3.7l-14.383,33.879a3.62,3.62,0,0,1-3.683,2.438h-1.458c-2.42,0-3.4-1.5-2.424-3.716l3.829-8.686a2.339,2.339,0,0,0,.012-2.048l-9.326-21.863c-.945-2.214.039-3.7,2.447-3.7h2.164a3.44,3.44,0,0,1,3.606,2.588l4.51,13.334c.466,1.376,1.511,1.376,1.975,0l4.5-13.334Z" transform="translate(-30.337 -4.102)" fill="#3b3343"/>
    <path id="Path_117" data-name="Path 117" d="M333.9,235.293h-1.71a2.851,2.851,0,0,1-3.177-3.177v-32.75a2.851,2.851,0,0,1,3.177-3.177h1.71a2.851,2.851,0,0,1,3.177,3.177v32.75A2.851,2.851,0,0,1,333.9,235.293Z" transform="translate(-43.858)" fill="#3b3343"/>
    <path id="Path_118" data-name="Path 118" d="M334.155,259.581c-1.91-4.9-5.763-8-11.451-9.21a1.872,1.872,0,0,0-.777,3.662,14.986,14.986,0,0,1,3.789,1.3,47.7,47.7,0,0,1-53.549,21.346l-.042-.012c-7.492-1.956-14.526-6.181-21.5-12.91a15.029,15.029,0,0,1,3.4-2.107,1.872,1.872,0,1,0-1.569-3.4c-5.279,2.438-8.35,6.314-9.125,11.519a1.872,1.872,0,1,0,3.7.552,10.908,10.908,0,0,1,1.2-3.67,69.075,69.075,0,0,0,6.179,5.287c8.611,6.908,24.314,17.693,36.972,16.272,12.022-1.35,24.281-14.041,31.364-22.72a49.978,49.978,0,0,0,5.945-7.857,10.936,10.936,0,0,1,1.972,3.3,1.872,1.872,0,1,0,3.488-1.358Z" transform="translate(-19.069 -15.66)" fill="#3dcfcf"/>
  </g>
</svg>
