<svg xmlns="http://www.w3.org/2000/svg" width="602" height="384" viewBox="0 0 602 384">
  <g id="Group_204" data-name="Group 204" transform="translate(-210 -6427)">
    <rect id="Rectangle_169" data-name="Rectangle 169" width="602" height="384" rx="10" transform="translate(210 6427)" fill="#fff"/>
    <rect id="Rectangle_172" data-name="Rectangle 172" width="522" height="2" rx="1" transform="translate(250 6469)" opacity="0.1"/>
    <circle id="Ellipse_6" data-name="Ellipse 6" cx="4" cy="4" r="4" transform="translate(250 6444)" opacity="0.1"/>
    <circle id="Ellipse_7" data-name="Ellipse 7" cx="4" cy="4" r="4" transform="translate(268 6444)" opacity="0.1"/>
    <circle id="Ellipse_8" data-name="Ellipse 8" cx="4" cy="4" r="4" transform="translate(286 6444)" opacity="0.1"/>
    <rect id="Rectangle_267" data-name="Rectangle 267" width="160" height="177" rx="5" transform="translate(250 6554)" opacity="0.05"/>
    <rect id="Rectangle_331" data-name="Rectangle 331" width="160" height="177" rx="5" transform="translate(431 6554)" fill="#3dcfcf"/>
    <rect id="Rectangle_336" data-name="Rectangle 336" width="160" height="177" rx="5" transform="translate(612 6554)" opacity="0.05"/>
    <rect id="Rectangle_277" data-name="Rectangle 277" width="140" height="5" rx="1" transform="translate(250 6764)" fill="#e1e1e1"/>
    <rect id="Rectangle_329" data-name="Rectangle 329" width="100" height="5" rx="1" transform="translate(431 6764)" fill="#e1e1e1"/>
    <rect id="Rectangle_334" data-name="Rectangle 334" width="128" height="5" rx="1" transform="translate(612 6764)" fill="#e1e1e1"/>
    <rect id="Rectangle_279" data-name="Rectangle 279" width="133" height="5" rx="1" transform="translate(250 6774)" fill="#e1e1e1"/>
    <rect id="Rectangle_330" data-name="Rectangle 330" width="88" height="5" rx="1" transform="translate(431 6774)" fill="#e1e1e1"/>
    <rect id="Rectangle_335" data-name="Rectangle 335" width="120" height="5" rx="1" transform="translate(612 6774)" fill="#e1e1e1"/>
    <rect id="Rectangle_276" data-name="Rectangle 276" width="27" height="10" rx="3" transform="translate(250 6744)" fill="#e1e1e1"/>
    <rect id="Rectangle_333" data-name="Rectangle 333" width="27" height="10" rx="3" transform="translate(431 6744)" fill="#3dcfcf"/>
    <rect id="Rectangle_338" data-name="Rectangle 338" width="56" height="10" rx="3" transform="translate(612 6744)" fill="#e1e1e1"/>
    <rect id="Rectangle_278" data-name="Rectangle 278" width="48" height="10" rx="3" transform="translate(282 6744)" fill="#e1e1e1"/>
    <rect id="Rectangle_343" data-name="Rectangle 343" width="30" height="10" rx="3" transform="translate(335 6744)" fill="#e1e1e1"/>
    <rect id="Rectangle_332" data-name="Rectangle 332" width="27" height="10" rx="3" transform="translate(463 6744)" fill="#3dcfcf"/>
    <rect id="Rectangle_337" data-name="Rectangle 337" width="27" height="10" rx="3" transform="translate(673 6744)" fill="#e1e1e1"/>
    <rect id="Rectangle_339" data-name="Rectangle 339" width="144" height="5" rx="1" transform="translate(250 6515)" fill="#e1e1e1"/>
    <rect id="Rectangle_340" data-name="Rectangle 340" width="187" height="5" rx="1" transform="translate(250 6525)" fill="#e1e1e1"/>
    <rect id="Rectangle_341" data-name="Rectangle 341" width="27" height="10" rx="3" transform="translate(250 6495)" fill="#e1e1e1"/>
    <rect id="Rectangle_342" data-name="Rectangle 342" width="27" height="10" rx="3" transform="translate(282 6495)" fill="#e1e1e1"/>
  </g>
</svg>
