<svg id="tooth2" xmlns="http://www.w3.org/2000/svg" width="221.587" height="265.473" viewBox="0 0 221.587 265.473">
  <g id="Group_8" data-name="Group 8" transform="translate(0 50.194)">
    <path id="Path_6" data-name="Path 6" d="M1494.55,423.669c-.09-3.348-.156-6.024-.108-9.246.167-10.516,4.1-19.264,12.551-25.72,19.839-14.461,59.972-2.173,66.9-.683a9.876,9.876,0,0,0,7.947-1.617c8.366-5.27,16.743-10.605,25.546-15.061a58.922,58.922,0,0,1,17.749-5.8c13.432-1.946,24.893,3.665,35.426,11.378,7.5,5.491,11.491,13.419,14.653,21.857,1.623,4.323,3.186,8.671,4.857,13.234,2.467-.8,4.79-3.767,7.09-2.275,1.473.952,3.635,10.018-1.048,11.785-5.479,2.072,1.953,11.737-9.731,44.044-7.856,19.144-4.892,40.882-4.5,43.726,1.509,10.815,2.814,21.222,4.4,32.025a94.724,94.724,0,0,1,1.048,17.983c-.9,13.467-20.246,16.18-27.869,11.809a26.751,26.751,0,0,1-11.791-12.617c-3.3-7.605-12.522-35.445-24.438-45.679-10.575-10.784-25.492-7.736-31.252,6.1-3.575,8.569-4.114,17.707-5.06,26.749-1.018,9.8-3.323,19.084-8.934,27.378a15.15,15.15,0,0,1-10.15,6.947c-10.6,2.006-19.462-2.773-25.372-12.2-10.516-16.773-8.288-75.164-25.744-99.788-5.647-7.965-10.515-28.45-11.234-32.552-3.233,1.695-3.545,2.036-5.407,2.509-.886-4.276-1.593-6.8-2.335-10.378C1490.023,426.118,1492.292,425.118,1494.55,423.669Zm30.594,84.464c3.042,17.019,4.006,34.151,9.108,50.655a29.416,29.416,0,0,0,8.707,13.6c4.222,3.767,9.018,4.288,14.144,3.869a9.639,9.639,0,0,0,7.485-4.527c9.27-13.534,7.461-33.2,10.012-48.834,2.455-15.09,13.51-22.258,26.851-21.767,15.605.252,30.295,28.4,33.72,37.84,1.922,5.311,4.88,10.335,7.234,15.474,2.449,5.359,4.862,9.479,10.2,12.132,13.869,6.264,21.294-3.82,20.761-10.964-.773-10.486-3.024-21.109-3.928-31.588-.449-5.239-1.215-10.455-2-15.659-2.449-16.336-1.1-29.7,5.773-47.535,2.449-7.492,6.581-30.7,4.832-35.073-3.216.875-4.521,2.162-5.2,5.336-1.347,6.275-3.641,12.359-5.713,18.467-1.036,3.06-2.533,5.959-3.682,8.988-7.7,20.253-31.049,18.791-40.295,7.007-6.557-8.36-12.671-16.9-16.7-26.654-3.06-7.407-9.018-8.533-15.6-9.162a14.693,14.693,0,0,0-3.623.377c-7.569,1.174-7.778,1.659-9.431,9.293-3.06,14.175-6.521,27.349-19.653,35.193a15.447,15.447,0,0,1-16.138.377,36.269,36.269,0,0,1-12.054-9.922c-7-9-12.258-18.983-17.025-29.271-.754-1.623-1.569-3.222-2.653-5.437-3.587.9-6.958,1.761-10.51,2.653C1504.083,460.317,1519.8,478.258,1525.144,508.133ZM1651.1,413.219c-7.024,3.689-13.587,2.413-20.4.431A35.409,35.409,0,0,0,1617.027,412c-6.791.665-9.929,4.9-8.689,11.7,2.336,12.03,8.407,22.144,16.216,31.348,7.587,8.935,20.36,17.653,28.767,3.91a32.919,32.919,0,0,0,2.707-6.036C1658.1,447.2,1675.55,407.854,1651.1,413.219Zm-80.949,4.354c-2.234-6.4-8.743-8.689-14.755-5.323-3.15,1.76-6.048,4.228-9.4,5.293-2.377.755-5.419.054-8-.61-4.91-1.27-9.635-2.575-14.743-.641-10.6,4.006-3.712,17.623-.407,24.3,2.773,5.6,10.612,18.845,11.522,19.917,9.234,10.845,22.169,11.282,29.815-1.814C1565.606,456.257,1576.008,430.567,1570.152,417.573Zm-71.991,4.689q4.9-.575,9.8-1.156a10.648,10.648,0,0,0,.658-2.03c.856-10.809,11.168-14.252,19.588-13.354a52.141,52.141,0,0,1,9.378,2.413c4.671,1.419,9.145,1.677,13.288-1.485.515-.389,1.216-.527,1.766-.893,6.935-4.557,16.611-1.563,20.995,5.485,2.156,3.467,4,7.138,6.042,10.8,3.323-.4,6.695-.988,10.084-1.138s6.809.126,10.432.228c.275-1.137.568-2.078.73-3.048,1.641-10.018,6.779-12.9,17.168-14.186,5.653-.695,14.875,1.5,19.965,4.06a8.451,8.451,0,0,0,8.365-.192c4.533-2.521,9.055-4.371,14.33-2.491,4.611,1.653,7.563,6.2,11.251,8.432a1.587,1.587,0,0,0,2.4-1.4c-.509-9.91-6.09-21.785-13.042-28.438-5.6-5.348-13.126-8.874-20.2-11.929-8.233-3.545-16.719-2.688-24.893.378-9.839,3.695-18.408,9.838-27.456,15.114-1.533.893-3.006,1.886-5.126,3.228,7.054,2.6,19.857,5.6,19.624,8.826-.258,3.545-5.342,1.377-7.725.317-32.785-12.312-68.439-19.57-89.249-3.73C1498.688,402.956,1497.424,411.4,1498.161,422.262Z" transform="translate(-1487.741 -365.159)" fill="#deeaea"/>
  </g>
  <g id="Group_9" data-name="Group 9" transform="translate(154.128)">
    <path id="Path_7" data-name="Path 7" d="M1465.566,272.357c-.407-2.186-.378-4.449,2.467-5.557,5.988,4.3,7.743,11.707,12.815,17.228,1.886-1.251,3.653-2.509,5.5-3.634,3.773-2.294,7.516-4.653,11.414-6.719,2.8-1.479,4.186-.407,3.677,2.659.257,5.832-.419,10.335-1.305,16.474,4.317.114,9.407.215,12.893.916,3.407.683,7.8.563,10.443,2.407-5.94,4.551-12.078,8.486-17.246,13.438-5.33,5.1-9.713,11.192-14.833,17.235-2.468-1.97-4.767-3.856-7.12-5.671-5.1-3.94-19.995-9.551-19.738-11.413C1466.236,297.286,1467.895,284.9,1465.566,272.357Zm3.976,36.636a1.84,1.84,0,0,0,1.515,1.772c7.875,1.611,13.426,6.665,19.145,11.617,7.563-7.683,16.575-18.492,25.971-24.929-3.222-2.288-19.06-.317-20.737-2.8,2.066-7.491,1.976-10.473.737-15.857-5.923,2.1-12.1,10.39-19.4,11.066.222-6.617-2.269-11.557-7.4-16.683Z" transform="translate(-1464.532 -266.8)" fill="#deeaea"/>
  </g>
  <g id="Group_10" data-name="Group 10" transform="translate(203.011 124.15)">
    <path id="Path_8" data-name="Path 8" d="M1477.384,510.079l-6.191,25.862C1475.148,532.235,1479.255,517.129,1477.384,510.079Z" transform="translate(-1471.193 -510.079)" fill="#deeaea"/>
  </g>
  <g id="Group_11" data-name="Group 11" transform="translate(217.913 128.966)">
    <path id="Path_9" data-name="Path 9" d="M1451.511,519.517a34.937,34.937,0,0,0-3.674,15.816S1451.366,525.02,1451.511,519.517Z" transform="translate(-1447.837 -519.517)" fill="#deeaea"/>
  </g>
  <g id="Group_12" data-name="Group 12" transform="translate(94.81 146.236)">
    <path id="Path_10" data-name="Path 10" d="M1643.576,560.63c1.5,9.192,34.474,2.8,25.258-7.12-1.144-1.234-3.557,5.342-7.928,7.372-5.264,2.443-14.8-2.048-16.539-1.539A1.194,1.194,0,0,0,1643.576,560.63Z" transform="translate(-1643.561 -553.357)" fill="#deeaea"/>
  </g>
  <g id="Group_13" data-name="Group 13" transform="translate(47.972 111.261)">
    <path id="Path_11" data-name="Path 11" d="M1752.891,484.823c1.515,5.869,17.69,11.39,17.941,10.929C1765.323,492.1,1760.113,487.949,1752.891,484.823Z" transform="translate(-1752.891 -484.823)" fill="#deeaea"/>
  </g>
  <g id="Group_14" data-name="Group 14" transform="translate(48.606 119.399)">
    <path id="Path_12" data-name="Path 12" d="M1764.883,500.77a30.4,30.4,0,0,0,11.186,9.91C1774.039,505.411,1768.482,504.177,1764.883,500.77Z" transform="translate(-1764.883 -500.77)" fill="#deeaea"/>
  </g>
  <g id="Group_15" data-name="Group 15" transform="translate(139.006 121.998)">
    <path id="Path_13" data-name="Path 13" d="M1588.019,507.306c3.305,2.4,10.689,6.15,10.994,5.743-3.593-2.371-7.186-4.737-10.893-7.186C1588.1,506.067,1587.75,507.114,1588.019,507.306Z" transform="translate(-1587.918 -505.863)" fill="#deeaea"/>
  </g>
  <g id="Group_16" data-name="Group 16" transform="translate(139.053 115.393)">
    <path id="Path_14" data-name="Path 14" d="M1565.552,492.92l22.462,16.491C1582.17,501.825,1575.116,495.675,1565.552,492.92Z" transform="translate(-1565.552 -492.92)" fill="#deeaea"/>
  </g>
  <g id="Group_17" data-name="Group 17" transform="translate(142.975 108.668)">
    <path id="Path_15" data-name="Path 15" d="M1568.087,479.742c6.438,3.4,11.5,8.635,17.246,13.109C1580.836,486.832,1575.417,481.952,1568.087,479.742Z" transform="translate(-1568.087 -479.742)" fill="#deeaea"/>
  </g>
  <g id="Group_18" data-name="Group 18" transform="translate(40.858 122.831)">
    <path id="Path_16" data-name="Path 16" d="M1768.192,507.494c6.438,3.39,11.509,8.635,17.246,13.108C1780.941,514.584,1775.522,509.7,1768.192,507.494Z" transform="translate(-1768.192 -507.494)" fill="#deeaea"/>
  </g>
</svg>
